<?xml version="1.0" encoding="UTF-8" standalone="no"?>
<!DOCTYPE svg PUBLIC "-//W3C//DTD SVG 1.1//EN" "http://www.w3.org/Graphics/SVG/1.1/DTD/svg11.dtd">
<svg width="100%" height="100%" viewBox="0 0 448 512" version="1.1" xmlns="http://www.w3.org/2000/svg" xmlns:xlink="http://www.w3.org/1999/xlink" xml:space="preserve" xmlns:serif="http://www.serif.com/" style="fill-rule:evenodd;clip-rule:evenodd;stroke-linejoin:round;stroke-miterlimit:2;">
    <path d="M448,358.4L448,25.6C448,9.6 438.4,0 422.4,0L96,0C41.6,0 0,41.6 0,96L0,416C0,470.4 41.6,512 96,512L422.4,512C435.2,512 448,502.4 448,486.4L448,470.4C448,464 444.8,457.6 438.4,451.2C435.2,435.2 435.2,390.4 438.4,377.6C444.8,374.4 448,368 448,358.4ZM144,144C144,135.16 151.16,128 160,128L208,128L208,80C208,71.16 215.16,64 224,64L256,64C264.84,64 272,71.16 272,80L272,128L320,128C328.84,128 336,135.16 336,144L336,176C336,184.84 328.84,192 320,192L272,192L272,304C272,312.84 264.84,320 256,320L224,320C215.16,320 208,312.84 208,304L208,192L160,192C151.16,192 144,184.84 144,176L144,144ZM380.8,448L96,448C76.8,448 64,435.2 64,416C64,396.8 80,384 96,384L380.8,384L380.8,448Z" style="fill-rule:nonzero;stroke:rgb(194,178,145);stroke-width:1px;"/>
</svg>
